<?xml version="1.0" standalone="no"?>
<!DOCTYPE svg PUBLIC "-//W3C//DTD SVG 20010904//EN"
 "http://www.w3.org/TR/2001/REC-SVG-20010904/DTD/svg10.dtd">
<svg version="1.0" xmlns="http://www.w3.org/2000/svg"
 width="56.000000pt" height="47.000000pt" viewBox="0 0 56.000000 47.000000"
 preserveAspectRatio="xMidYMid meet">

<g transform="translate(0.000000,47.000000) scale(0.100000,-0.100000)"
fill="#000000" stroke="none">
<path d="M438 442 c-21 -15 -36 -32 -33 -39 2 -6 -3 -17 -11 -23 -8 -7 -14
-21 -14 -31 0 -27 -19 -24 -42 6 -11 14 -25 24 -30 23 -5 -2 -24 -30 -41 -63
l-32 -60 -97 -3 -98 -3 0 -45 c0 -41 2 -45 30 -51 25 -4 30 -10 30 -34 0 -26
-4 -29 -30 -29 -29 0 -30 -2 -30 -45 l0 -45 194 0 195 0 3 37 c3 33 7 39 33
43 27 5 30 9 30 45 0 38 -2 40 -32 43 -30 3 -33 6 -33 38 0 25 -8 44 -30 67
-25 27 -27 34 -16 47 8 8 16 24 18 35 2 11 10 19 19 17 9 -1 33 13 55 32 34
29 37 35 25 50 -17 21 -19 20 -63 -12z m52 -1 c0 -15 -58 -52 -64 -42 -4 5 6
19 21 30 31 22 43 26 43 12z m-163 -143 c-18 -15 -19 -18 -5 -18 9 0 20 5 23
11 7 10 45 -16 45 -31 0 -9 -141 -42 -148 -36 -2 3 13 35 33 72 l38 67 18 -24
c18 -23 18 -24 -4 -41z m-159 -95 c-3 -26 -7 -28 -55 -31 -41 -2 -53 0 -53 12
0 8 6 17 13 19 9 4 8 8 -3 16 -11 8 -1 11 43 11 58 0 58 0 55 -27z m56 11 c4
-12 14 -14 36 -9 26 6 30 4 30 -14 0 -19 -6 -21 -55 -21 -54 0 -55 0 -55 30 0
23 5 30 19 30 10 0 22 -7 25 -16z m196 -14 c0 -30 -1 -30 -55 -30 -52 0 -55 2
-55 24 0 26 14 32 78 35 29 1 32 -2 32 -29z m-209 -50 c14 0 19 -7 19 -30 0
-30 -1 -30 -55 -30 -54 0 -55 0 -55 29 0 23 5 31 23 34 12 2 28 3 35 1 8 -2
22 -4 33 -4z m125 0 c9 0 14 -11 14 -31 l0 -30 -52 3 c-49 3 -53 5 -56 30 -3
22 1 27 25 31 15 2 34 2 41 0 8 -1 20 -3 28 -3z m132 0 c7 0 12 -13 12 -30 0
-30 -1 -30 -55 -30 -54 0 -55 0 -55 29 0 31 22 43 65 35 11 -2 26 -4 33 -4z
m-300 -102 c3 -28 2 -28 -52 -28 -56 0 -56 0 -56 31 l0 30 53 -3 c48 -3 52 -5
55 -30z m122 2 c0 -30 -1 -30 -55 -30 -54 0 -55 0 -55 30 0 30 1 30 55 30 54
0 55 0 55 -30z m128 -2 c3 -28 2 -28 -52 -28 -56 0 -56 0 -56 31 l0 30 53 -3
c48 -3 52 -5 55 -30z"/>
<path d="M100 210 c0 -5 9 -10 20 -10 11 0 20 5 20 10 0 6 -9 10 -20 10 -11 0
-20 -4 -20 -10z"/>
</g>
</svg>
