<?xml version="1.0" standalone="no"?>
<!DOCTYPE svg PUBLIC "-//W3C//DTD SVG 20010904//EN"
 "http://www.w3.org/TR/2001/REC-SVG-20010904/DTD/svg10.dtd">
<svg version="1.0" xmlns="http://www.w3.org/2000/svg"
 width="41.000000pt" height="47.000000pt" viewBox="0 0 41.000000 47.000000"
 preserveAspectRatio="xMidYMid meet">

<g transform="translate(0.000000,47.000000) scale(0.100000,-0.100000)"
fill="#000000" stroke="none">
<path d="M208 447 c-9 -12 -29 -50 -47 -84 l-31 -62 -62 -3 -63 -3 0 -145 0
-145 183 -3 182 -2 0 40 c0 22 5 40 10 40 6 0 10 20 10 45 0 25 -4 45 -9 45
-5 0 -11 21 -13 48 -4 36 1 59 19 96 14 26 22 53 20 60 -5 12 -157 96 -175 96
-5 0 -16 -10 -24 -23z m42 -7 c0 -22 -93 -180 -106 -180 -17 0 -18 5 0 33 7
12 30 52 50 90 33 61 56 84 56 57z m40 -16 c0 -18 -87 -164 -98 -164 -14 0
-14 1 45 108 30 53 53 78 53 56z m60 -34 c22 -11 40 -23 40 -26 0 -4 -12 -28
-27 -55 l-26 -49 -54 0 c-29 0 -53 2 -53 5 0 7 74 145 78 145 1 0 21 -9 42
-20z m-240 -120 c0 -5 -20 -10 -45 -10 -25 0 -45 5 -45 10 0 6 20 10 45 10 25
0 45 -4 45 -10z m244 -68 c1 -26 -3 -32 -19 -32 -27 0 -45 -18 -45 -45 0 -27
18 -45 47 -45 19 0 23 -5 23 -30 l0 -30 -170 0 -170 0 0 110 0 110 167 -2 166
-3 1 -33z m16 -77 c0 -21 -5 -25 -30 -25 -25 0 -30 4 -30 25 0 21 5 25 30 25
25 0 30 -4 30 -25z"/>
<path d="M315 350 c-7 -24 1 -40 20 -40 17 0 38 36 30 50 -11 17 -43 11 -50
-10z m35 -10 c0 -5 -4 -10 -10 -10 -5 0 -10 5 -10 10 0 6 5 10 10 10 6 0 10
-4 10 -10z"/>
</g>
</svg>
