<?xml version="1.0" standalone="no"?>
<!DOCTYPE svg PUBLIC "-//W3C//DTD SVG 20010904//EN"
 "http://www.w3.org/TR/2001/REC-SVG-20010904/DTD/svg10.dtd">
<svg version="1.0" xmlns="http://www.w3.org/2000/svg"
 width="43.000000pt" height="47.000000pt" viewBox="0 0 43.000000 47.000000"
 preserveAspectRatio="xMidYMid meet">

<g transform="translate(0.000000,47.000000) scale(0.100000,-0.100000)"
fill="#000000" stroke="none">
<path d="M255 458 c-32 -18 -44 -40 -45 -80 0 -25 7 -45 20 -58 28 -28 25 -40
-11 -40 -19 0 -45 -11 -69 -30 -31 -25 -39 -27 -44 -14 -4 11 -18 14 -53 12
l-48 -3 -3 -123 -3 -122 55 0 c32 0 56 5 58 11 3 9 9 9 25 0 30 -16 228 -15
240 2 9 10 22 64 37 142 2 11 7 27 10 36 10 23 -19 49 -55 49 -26 0 -29 3 -29
30 0 17 9 40 20 52 13 14 20 36 20 59 0 30 -7 43 -32 65 l-33 27 -5 -32 c-6
-40 -23 -41 -30 -2 -4 26 -7 29 -25 19z m1 -47 c-3 -4 3 -16 13 -25 15 -14 24
-15 40 -6 12 6 21 17 21 25 0 23 17 18 23 -7 7 -23 -8 -58 -29 -71 -8 -5 -14
-25 -14 -47 0 -29 -4 -40 -15 -40 -11 0 -15 11 -15 40 0 29 -5 42 -19 50 -11
5 -23 19 -26 30 -8 24 2 60 16 60 6 0 8 -4 5 -9z m-6 -176 c0 -24 2 -25 75
-25 82 0 104 -17 28 -22 -61 -4 -69 -26 -11 -30 58 -4 55 -22 -4 -26 -52 -3
-67 -22 -19 -22 16 0 36 -3 45 -6 28 -11 6 -24 -40 -24 -32 0 -44 -4 -44 -15
0 -11 11 -15 40 -15 22 0 40 -4 40 -10 0 -14 -193 -13 -225 2 -23 11 -25 16
-25 85 0 52 4 73 13 73 6 0 28 14 47 30 45 38 80 40 80 5z m-170 -110 c0 -95
0 -95 -25 -95 -25 0 -25 0 -25 95 0 95 0 95 25 95 25 0 25 0 25 -95z"/>
</g>
</svg>
